<svg xmlns="http://www.w3.org/2000/svg" width="360" height="720" viewBox="0 0 360 720">
  <defs>
    <filter id="shadow" x="-20%" y="-20%" width="140%" height="140%">
      <feDropShadow dx="0" dy="8" stdDeviation="12" flood-color="#1E3A8A" flood-opacity="0.08" />
    </filter>
  </defs>
  <rect width="360" height="720" rx="36" fill="#F7F9FF" />

  <text x="24" y="50" font-family="Manrope, Arial, sans-serif" font-size="14" font-weight="600" fill="#6B7A99">Add Item</text>

  <rect x="20" y="70" width="320" height="600" rx="28" fill="#FFFFFF" filter="url(#shadow)" />

  <text x="36" y="110" font-family="Manrope, Arial, sans-serif" font-size="10" fill="#9BA7BD">Name</text>
  <rect x="36" y="118" width="288" height="38" rx="16" fill="#F5F7FF" />

  <text x="36" y="178" font-family="Manrope, Arial, sans-serif" font-size="10" fill="#9BA7BD">Price</text>
  <rect x="36" y="186" width="136" height="38" rx="16" fill="#F5F7FF" />
  <text x="200" y="178" font-family="Manrope, Arial, sans-serif" font-size="10" fill="#9BA7BD">Original</text>
  <rect x="200" y="186" width="124" height="38" rx="16" fill="#F5F7FF" />

  <text x="36" y="246" font-family="Manrope, Arial, sans-serif" font-size="10" fill="#9BA7BD">Date</text>
  <rect x="36" y="254" width="288" height="38" rx="16" fill="#F5F7FF" />
  <text x="50" y="279" font-family="Manrope, Arial, sans-serif" font-size="10" fill="#2B63F1">2026/01/24</text>

  <text x="36" y="320" font-family="Manrope, Arial, sans-serif" font-size="10" fill="#9BA7BD">Category</text>
  <rect x="36" y="330" width="68" height="52" rx="16" fill="#F7F8FF" />
  <rect x="112" y="330" width="68" height="52" rx="16" fill="#F7F8FF" />
  <rect x="188" y="330" width="68" height="52" rx="16" fill="#F7F8FF" />
  <rect x="264" y="330" width="60" height="52" rx="16" fill="#2B63F1" />

  <text x="36" y="410" font-family="Manrope, Arial, sans-serif" font-size="10" fill="#9BA7BD">Status</text>
  <rect x="36" y="420" width="70" height="28" rx="14" fill="#2B63F1" />
  <rect x="112" y="420" width="70" height="28" rx="14" fill="#F5F7FF" />
  <rect x="188" y="420" width="70" height="28" rx="14" fill="#F5F7FF" />
  <rect x="264" y="420" width="60" height="28" rx="14" fill="#F5F7FF" />

  <text x="36" y="472" font-family="Manrope, Arial, sans-serif" font-size="10" fill="#9BA7BD">Source</text>
  <rect x="36" y="482" width="70" height="28" rx="14" fill="#F5F7FF" />
  <rect x="112" y="482" width="70" height="28" rx="14" fill="#F5F7FF" />
  <rect x="188" y="482" width="70" height="28" rx="14" fill="#F5F7FF" />
  <rect x="264" y="482" width="60" height="28" rx="14" fill="#F5F7FF" />

  <text x="36" y="540" font-family="Manrope, Arial, sans-serif" font-size="10" fill="#9BA7BD">Notes</text>
  <rect x="36" y="548" width="288" height="60" rx="18" fill="#F5F7FF" />

  <rect x="36" y="630" width="288" height="44" rx="22" fill="#2B63F1" />
  <text x="170" y="657" font-family="Manrope, Arial, sans-serif" font-size="12" fill="#FFFFFF">Save</text>
</svg>
