<svg xmlns="http://www.w3.org/2000/svg" width="1080" height="2400" viewBox="0 0 1080 2400">
  <defs>
    <linearGradient id="bg" x1="0" y1="0" x2="1" y2="1">
      <stop offset="0%" stop-color="#EAF2FF" />
      <stop offset="100%" stop-color="#F8FAFC" />
    </linearGradient>
    <linearGradient id="card" x1="0" y1="0" x2="0" y2="1">
      <stop offset="0%" stop-color="#FFFFFF" />
      <stop offset="100%" stop-color="#F1F5F9" />
    </linearGradient>
  </defs>
  <rect width="1080" height="2400" fill="url(#bg)" />

  <!-- Title -->
  <text x="96" y="140" font-family="Arial, sans-serif" font-size="64" font-weight="700" fill="#1E3A8A">MonoTracker</text>
  <text x="96" y="200" font-family="Arial, sans-serif" font-size="28" fill="#64748B">Overview</text>

  <!-- Summary Cards -->
  <rect x="96" y="260" width="420" height="180" rx="32" fill="url(#card)" stroke="#E2E8F0" />
  <rect x="564" y="260" width="420" height="180" rx="32" fill="url(#card)" stroke="#E2E8F0" />
  <text x="136" y="320" font-family="Arial, sans-serif" font-size="20" fill="#94A3B8">TOTAL VALUE</text>
  <text x="136" y="380" font-family="Arial, sans-serif" font-size="48" font-weight="700" fill="#2563EB">$12,480</text>
  <text x="604" y="320" font-family="Arial, sans-serif" font-size="20" fill="#94A3B8">ITEMS</text>
  <text x="604" y="380" font-family="Arial, sans-serif" font-size="48" font-weight="700" fill="#0F172A">86</text>

  <!-- Trend Card -->
  <rect x="96" y="480" width="888" height="420" rx="36" fill="#FFFFFF" stroke="#E2E8F0" />
  <text x="136" y="540" font-family="Arial, sans-serif" font-size="26" font-weight="700" fill="#1E293B">Monthly Spend</text>
  <g transform="translate(140,620)">
    <rect width="60" height="200" rx="12" fill="#E2E8F0" />
    <rect y="60" width="60" height="140" rx="12" fill="#3B82F6" />
    <rect x="90" width="60" height="200" rx="12" fill="#E2E8F0" />
    <rect x="90" y="30" width="60" height="170" rx="12" fill="#3B82F6" />
    <rect x="180" width="60" height="200" rx="12" fill="#E2E8F0" />
    <rect x="180" y="90" width="60" height="110" rx="12" fill="#3B82F6" />
    <rect x="270" width="60" height="200" rx="12" fill="#E2E8F0" />
    <rect x="270" y="20" width="60" height="180" rx="12" fill="#3B82F6" />
    <rect x="360" width="60" height="200" rx="12" fill="#E2E8F0" />
    <rect x="360" y="70" width="60" height="130" rx="12" fill="#3B82F6" />
    <rect x="450" width="60" height="200" rx="12" fill="#E2E8F0" />
    <rect x="450" y="40" width="60" height="160" rx="12" fill="#3B82F6" />
  </g>

  <!-- Recent Items -->
  <rect x="96" y="940" width="888" height="980" rx="36" fill="#FFFFFF" stroke="#E2E8F0" />
  <text x="136" y="1000" font-family="Arial, sans-serif" font-size="26" font-weight="700" fill="#1E293B">Recent Items</text>
  <g transform="translate(136,1060)">
    <rect width="808" height="120" rx="24" fill="#F8FAFC" stroke="#E2E8F0" />
    <rect x="24" y="24" width="72" height="72" rx="16" fill="#DBEAFE" />
    <text x="120" y="64" font-family="Arial, sans-serif" font-size="22" fill="#0F172A">Camera Lens</text>
    <text x="120" y="94" font-family="Arial, sans-serif" font-size="18" fill="#94A3B8">Owned · 2026-01-24</text>
    <text x="700" y="72" font-family="Arial, sans-serif" font-size="22" fill="#2563EB">$320</text>
  </g>
  <g transform="translate(136,1210)">
    <rect width="808" height="120" rx="24" fill="#F8FAFC" stroke="#E2E8F0" />
    <rect x="24" y="24" width="72" height="72" rx="16" fill="#DCFCE7" />
    <text x="120" y="64" font-family="Arial, sans-serif" font-size="22" fill="#0F172A">Running Shoes</text>
    <text x="120" y="94" font-family="Arial, sans-serif" font-size="18" fill="#94A3B8">Wishlist · Price Track</text>
    <text x="700" y="72" font-family="Arial, sans-serif" font-size="22" fill="#16A34A">$158</text>
  </g>
  <g transform="translate(136,1360)">
    <rect width="808" height="120" rx="24" fill="#F8FAFC" stroke="#E2E8F0" />
    <rect x="24" y="24" width="72" height="72" rx="16" fill="#FDE68A" />
    <text x="120" y="64" font-family="Arial, sans-serif" font-size="22" fill="#0F172A">Desk Lamp</text>
    <text x="120" y="94" font-family="Arial, sans-serif" font-size="18" fill="#94A3B8">Owned · 2025-12-09</text>
    <text x="700" y="72" font-family="Arial, sans-serif" font-size="22" fill="#F59E0B">$42</text>
  </g>

  <!-- Bottom Tabs -->
  <rect x="120" y="2040" width="840" height="200" rx="60" fill="#FFFFFF" stroke="#E2E8F0" />
  <circle cx="240" cy="2140" r="28" fill="#CBD5E1" />
  <circle cx="420" cy="2140" r="28" fill="#CBD5E1" />
  <circle cx="600" cy="2140" r="28" fill="#3B82F6" />
  <circle cx="780" cy="2140" r="28" fill="#CBD5E1" />
  <text x="240" y="2195" text-anchor="middle" font-family="Arial, sans-serif" font-size="18" fill="#94A3B8">Owned</text>
  <text x="420" y="2195" text-anchor="middle" font-family="Arial, sans-serif" font-size="18" fill="#94A3B8">Wishlist</text>
  <text x="600" y="2195" text-anchor="middle" font-family="Arial, sans-serif" font-size="18" fill="#2563EB">Stats</text>
  <text x="780" y="2195" text-anchor="middle" font-family="Arial, sans-serif" font-size="18" fill="#94A3B8">Profile</text>
</svg>
