<svg xmlns="http://www.w3.org/2000/svg" width="360" height="720" viewBox="0 0 360 720">
  <defs>
    <filter id="shadow" x="-20%" y="-20%" width="140%" height="140%">
      <feDropShadow dx="0" dy="8" stdDeviation="12" flood-color="#1E3A8A" flood-opacity="0.08" />
    </filter>
  </defs>
  <rect width="360" height="720" rx="36" fill="#EEF4FF" />

  <text x="24" y="58" font-family="Manrope, Arial, sans-serif" font-size="24" font-weight="700" fill="#1F3B8E">MonoTracker</text>
  <text x="24" y="92" font-family="Manrope, Arial, sans-serif" font-size="20" font-weight="700" fill="#2B63F1">CNY 849.07</text>
  <text x="140" y="92" font-family="Manrope, Arial, sans-serif" font-size="10" fill="#93A4C0">Total value</text>

  <rect x="20" y="120" width="240" height="42" rx="20" fill="#FFFFFF" filter="url(#shadow)" />
  <text x="38" y="146" font-family="Manrope, Arial, sans-serif" font-size="11" fill="#9BA7BD">Search name / notes / source</text>
  <rect x="270" y="120" width="70" height="42" rx="18" fill="#FFFFFF" filter="url(#shadow)" />
  <text x="286" y="146" font-family="Manrope, Arial, sans-serif" font-size="11" fill="#6B7A99">Filter</text>

  <rect x="20" y="176" width="56" height="28" rx="14" fill="#2B63F1" />
  <text x="38" y="195" font-family="Manrope, Arial, sans-serif" font-size="10" fill="#FFFFFF">All</text>
  <rect x="82" y="176" width="56" height="28" rx="14" fill="#FFFFFF" />
  <text x="98" y="195" font-family="Manrope, Arial, sans-serif" font-size="10" fill="#6B7A99">New</text>
  <rect x="144" y="176" width="56" height="28" rx="14" fill="#FFFFFF" />
  <text x="160" y="195" font-family="Manrope, Arial, sans-serif" font-size="10" fill="#6B7A99">Used</text>
  <rect x="206" y="176" width="56" height="28" rx="14" fill="#FFFFFF" />
  <text x="220" y="195" font-family="Manrope, Arial, sans-serif" font-size="10" fill="#6B7A99">Broken</text>
  <rect x="268" y="176" width="56" height="28" rx="14" fill="#FFFFFF" />
  <text x="284" y="195" font-family="Manrope, Arial, sans-serif" font-size="10" fill="#6B7A99">Sold</text>

  <rect x="20" y="220" width="320" height="120" rx="24" fill="#FFFFFF" filter="url(#shadow)" />
  <rect x="36" y="236" width="72" height="72" rx="16" fill="#FFE6C7" />
  <text x="120" y="252" font-family="Manrope, Arial, sans-serif" font-size="12" fill="#2B3A55">Item A</text>
  <text x="120" y="274" font-family="Manrope, Arial, sans-serif" font-size="14" font-weight="700" fill="#2B63F1">CNY 148.36</text>
  <text x="120" y="294" font-family="Manrope, Arial, sans-serif" font-size="10" fill="#9BA7BD">2026-01-23</text>

  <rect x="20" y="354" width="320" height="120" rx="24" fill="#FFFFFF" filter="url(#shadow)" />
  <rect x="36" y="370" width="72" height="72" rx="16" fill="#E0E7FF" />
  <text x="120" y="386" font-family="Manrope, Arial, sans-serif" font-size="12" fill="#2B3A55">Item B</text>
  <text x="120" y="408" font-family="Manrope, Arial, sans-serif" font-size="14" font-weight="700" fill="#2B63F1">CNY 700.71</text>
  <text x="120" y="428" font-family="Manrope, Arial, sans-serif" font-size="10" fill="#9BA7BD">2025-05-29</text>

  <circle cx="312" cy="520" r="22" fill="#FFFFFF" filter="url(#shadow)" />
  <circle cx="312" cy="576" r="26" fill="#2B63F1" filter="url(#shadow)" />

  <rect x="30" y="640" width="300" height="60" rx="28" fill="#FFFFFF" filter="url(#shadow)" />
  <text x="70" y="676" font-family="Manrope, Arial, sans-serif" font-size="10" fill="#2B63F1">Home</text>
  <text x="140" y="676" font-family="Manrope, Arial, sans-serif" font-size="10" fill="#6B7A99">Wish</text>
  <text x="210" y="676" font-family="Manrope, Arial, sans-serif" font-size="10" fill="#6B7A99">Stats</text>
  <text x="270" y="676" font-family="Manrope, Arial, sans-serif" font-size="10" fill="#6B7A99">Me</text>
</svg>
