<svg xmlns="http://www.w3.org/2000/svg" width="360" height="720" viewBox="0 0 360 720">
  <defs>
    <filter id="shadow" x="-20%" y="-20%" width="140%" height="140%">
      <feDropShadow dx="0" dy="8" stdDeviation="12" flood-color="#1E3A8A" flood-opacity="0.08" />
    </filter>
  </defs>
  <rect width="360" height="720" rx="36" fill="#EEF4FF" />

  <text x="24" y="58" font-family="Manrope, Arial, sans-serif" font-size="24" font-weight="700" fill="#1F3B8E">MonoTracker</text>
  <text x="24" y="84" font-family="Manrope, Arial, sans-serif" font-size="12" fill="#93A4C0">Stats</text>

  <rect x="20" y="110" width="150" height="70" rx="22" fill="#FFFFFF" filter="url(#shadow)" />
  <rect x="190" y="110" width="150" height="70" rx="22" fill="#FFFFFF" filter="url(#shadow)" />
  <text x="34" y="135" font-family="Manrope, Arial, sans-serif" font-size="10" fill="#9BA7BD">Total Value</text>
  <text x="34" y="160" font-family="Manrope, Arial, sans-serif" font-size="14" font-weight="700" fill="#2B63F1">CNY 849.07</text>
  <text x="204" y="135" font-family="Manrope, Arial, sans-serif" font-size="10" fill="#9BA7BD">Items</text>
  <text x="204" y="160" font-family="Manrope, Arial, sans-serif" font-size="16" font-weight="700" fill="#2B3A55">2</text>

  <rect x="20" y="200" width="320" height="160" rx="24" fill="#FFFFFF" filter="url(#shadow)" />
  <text x="36" y="230" font-family="Manrope, Arial, sans-serif" font-size="12" fill="#2B3A55">Monthly Spend</text>
  <path d="M40 310 C 90 240, 160 300, 220 255 C 260 230, 300 280, 320 250" fill="none" stroke="#2B63F1" stroke-width="4" />
  <circle cx="40" cy="310" r="4" fill="#2B63F1" />
  <circle cx="220" cy="255" r="4" fill="#2B63F1" />
  <circle cx="320" cy="250" r="4" fill="#2B63F1" />

  <rect x="20" y="380" width="320" height="90" rx="24" fill="#FFFFFF" filter="url(#shadow)" />
  <text x="36" y="410" font-family="Manrope, Arial, sans-serif" font-size="12" fill="#2B3A55">Status Distribution</text>
  <rect x="36" y="430" width="288" height="8" rx="4" fill="#E8EDFF" />
  <rect x="36" y="430" width="288" height="8" rx="4" fill="#2B63F1" />

  <rect x="20" y="490" width="320" height="110" rx="24" fill="#FFFFFF" filter="url(#shadow)" />
  <text x="36" y="520" font-family="Manrope, Arial, sans-serif" font-size="12" fill="#2B3A55">Holding Time</text>
  <rect x="120" y="540" width="180" height="8" rx="4" fill="#E8EDFF" />
  <rect x="120" y="540" width="70" height="8" rx="4" fill="#6B9BFF" />
  <rect x="120" y="565" width="180" height="8" rx="4" fill="#E8EDFF" />
  <rect x="120" y="565" width="110" height="8" rx="4" fill="#2B63F1" />
  <text x="36" y="548" font-family="Manrope, Arial, sans-serif" font-size="10" fill="#6B7A99">0-6M</text>
  <text x="36" y="573" font-family="Manrope, Arial, sans-serif" font-size="10" fill="#6B7A99">6-12M</text>

  <rect x="30" y="640" width="300" height="60" rx="28" fill="#FFFFFF" filter="url(#shadow)" />
  <text x="70" y="676" font-family="Manrope, Arial, sans-serif" font-size="10" fill="#6B7A99">Home</text>
  <text x="140" y="676" font-family="Manrope, Arial, sans-serif" font-size="10" fill="#6B7A99">Wish</text>
  <text x="210" y="676" font-family="Manrope, Arial, sans-serif" font-size="10" fill="#2B63F1">Stats</text>
  <text x="270" y="676" font-family="Manrope, Arial, sans-serif" font-size="10" fill="#6B7A99">Me</text>
</svg>
